<mxfile host="app.diagrams.net" modified="2024-04-28T01:54:36.446Z" agent="Mozilla/5.0 (Windows NT 10.0; Win64; x64) AppleWebKit/537.36 (KHTML, like Gecko) Chrome/124.0.0.0 Safari/537.36" etag="JuIW6ij7zLFqfZDc_fPg" version="24.3.1" type="device">
  <diagram name="Page-1" id="2lp6oZdE-BPipIb4UrgI">
    <mxGraphModel dx="3717" dy="2338" grid="1" gridSize="10" guides="1" tooltips="1" connect="1" arrows="1" fold="1" page="1" pageScale="1" pageWidth="850" pageHeight="1100" math="0" shadow="0">
      <root>
        <mxCell id="0" />
        <mxCell id="1" parent="0" />
        <mxCell id="BGdtZH1YHA5HRXUlsSLR-31" style="edgeStyle=none;shape=connector;rounded=0;orthogonalLoop=1;jettySize=auto;html=1;exitX=0;exitY=0;exitDx=70;exitDy=0;exitPerimeter=0;labelBackgroundColor=default;strokeColor=default;align=center;verticalAlign=middle;fontFamily=Helvetica;fontSize=11;fontColor=default;endArrow=openThin;endFill=0;entryX=0.5;entryY=1;entryDx=0;entryDy=0;" parent="1" source="FVVRTqBDb79afzyqcxXZ-1" target="FVVRTqBDb79afzyqcxXZ-9" edge="1">
          <mxGeometry relative="1" as="geometry">
            <mxPoint x="440" y="100" as="targetPoint" />
          </mxGeometry>
        </mxCell>
        <mxCell id="BGdtZH1YHA5HRXUlsSLR-32" style="edgeStyle=none;shape=connector;rounded=0;orthogonalLoop=1;jettySize=auto;html=1;exitX=0;exitY=0;exitDx=140;exitDy=0;exitPerimeter=0;entryX=0;entryY=0.75;entryDx=0;entryDy=0;labelBackgroundColor=default;strokeColor=default;align=center;verticalAlign=middle;fontFamily=Helvetica;fontSize=11;fontColor=default;endArrow=openThin;endFill=0;" parent="1" source="FVVRTqBDb79afzyqcxXZ-1" target="FVVRTqBDb79afzyqcxXZ-3" edge="1">
          <mxGeometry relative="1" as="geometry" />
        </mxCell>
        <mxCell id="BGdtZH1YHA5HRXUlsSLR-34" style="edgeStyle=none;shape=connector;rounded=0;orthogonalLoop=1;jettySize=auto;html=1;exitX=0;exitY=0;exitDx=160;exitDy=105;exitPerimeter=0;entryX=-0.044;entryY=0.797;entryDx=0;entryDy=0;labelBackgroundColor=default;strokeColor=default;align=center;verticalAlign=middle;fontFamily=Helvetica;fontSize=11;fontColor=default;endArrow=openThin;endFill=0;entryPerimeter=0;" parent="1" source="FVVRTqBDb79afzyqcxXZ-1" target="FVVRTqBDb79afzyqcxXZ-16" edge="1">
          <mxGeometry relative="1" as="geometry" />
        </mxCell>
        <mxCell id="BGdtZH1YHA5HRXUlsSLR-35" style="edgeStyle=none;shape=connector;rounded=0;orthogonalLoop=1;jettySize=auto;html=1;entryX=0;entryY=1;entryDx=0;entryDy=0;labelBackgroundColor=default;strokeColor=default;align=center;verticalAlign=middle;fontFamily=Helvetica;fontSize=11;fontColor=default;endArrow=openThin;endFill=0;exitX=1.002;exitY=0.838;exitDx=0;exitDy=0;exitPerimeter=0;" parent="1" source="FVVRTqBDb79afzyqcxXZ-1" target="MxePWm94RPjNCgJkYmIr-14" edge="1">
          <mxGeometry relative="1" as="geometry" />
        </mxCell>
        <mxCell id="FVVRTqBDb79afzyqcxXZ-1" value="&lt;font style=&quot;font-size: 12px;&quot;&gt;F1 Race&lt;br&gt;&lt;/font&gt;&lt;div&gt;&lt;font style=&quot;font-size: 12px;&quot;&gt;&lt;u&gt;RaceID&lt;span style=&quot;border-color: var(--border-color); text-align: left;&quot;&gt;Year(pk)(fk)&lt;/span&gt;&lt;br&gt;&lt;/u&gt;&lt;/font&gt;&lt;/div&gt;&lt;div&gt;&lt;font size=&quot;3&quot; style=&quot;&quot;&gt;&lt;u&gt;&lt;span style=&quot;background-color: initial;&quot;&gt;CircuitID(pk)(fk)&lt;/span&gt;&lt;br&gt;&lt;/u&gt;&lt;/font&gt;&lt;/div&gt;&lt;div&gt;&lt;font size=&quot;3&quot; style=&quot;&quot;&gt;&lt;u&gt;&lt;span style=&quot;background-color: initial;&quot;&gt;DriverID(pk)(fk)&lt;/span&gt;&lt;br&gt;&lt;/u&gt;&lt;/font&gt;&lt;/div&gt;&lt;div&gt;&lt;font size=&quot;3&quot; style=&quot;&quot;&gt;&lt;u&gt;&lt;span style=&quot;background-color: initial;&quot;&gt;ConstructorID(pk)(fk)&lt;/span&gt;&lt;br&gt;&lt;/u&gt;&lt;/font&gt;&lt;/div&gt;&lt;div&gt;&lt;font size=&quot;3&quot;&gt;&lt;u&gt;&lt;span style=&quot;border-color: var(--border-color); text-align: left;&quot;&gt;ResultID(pk)(fk)&lt;/span&gt;&lt;br&gt;&lt;span style=&quot;border-color: var(--border-color); text-align: left;&quot;&gt;ConstructorStandingID(pk)(fk)&lt;br&gt;&lt;/span&gt;DriverStandingID(pk)(fk)&lt;br&gt;&lt;/u&gt;&lt;u style=&quot;border-color: var(--border-color); text-align: left;&quot;&gt;QualifyingID(pk)(fk)&lt;/u&gt;&lt;/font&gt;&lt;/div&gt;&lt;div&gt;&lt;u style=&quot;border-color: var(--border-color); text-align: left;&quot;&gt;&lt;font size=&quot;3&quot;&gt;ConstructorResultID(pk)(fk)&lt;/font&gt;&lt;/u&gt;&lt;font size=&quot;3&quot;&gt;&lt;u style=&quot;border-color: var(--border-color); text-align: left;&quot;&gt;&lt;br&gt;&lt;/u&gt;&lt;/font&gt;&lt;/div&gt;&lt;div&gt;&lt;u style=&quot;border-color: var(--border-color); text-align: left;&quot;&gt;&lt;div style=&quot;border-color: var(--border-color); text-align: center;&quot;&gt;&lt;font style=&quot;border-color: var(--border-color); font-size: 8px;&quot;&gt;RaceID&lt;br style=&quot;border-color: var(--border-color);&quot;&gt;CircuitID&lt;br style=&quot;border-color: var(--border-color);&quot;&gt;DriverID&lt;br style=&quot;border-color: var(--border-color);&quot;&gt;DriverID&lt;br style=&quot;border-color: var(--border-color);&quot;&gt;&lt;/font&gt;&lt;/div&gt;&lt;div style=&quot;border-color: var(--border-color); text-align: center;&quot;&gt;&lt;font style=&quot;border-color: var(--border-color); font-size: 8px;&quot;&gt;&lt;font style=&quot;border-color: var(--border-color);&quot;&gt;ConstructorID&lt;/font&gt;&lt;br style=&quot;border-color: var(--border-color);&quot;&gt;&lt;/font&gt;&lt;/div&gt;&lt;div style=&quot;border-color: var(--border-color); text-align: center;&quot;&gt;&lt;font style=&quot;border-color: var(--border-color); font-size: 8px;&quot;&gt;Position&lt;br style=&quot;border-color: var(--border-color);&quot;&gt;&lt;/font&gt;&lt;/div&gt;&lt;div style=&quot;border-color: var(--border-color); text-align: center;&quot;&gt;&lt;font style=&quot;border-color: var(--border-color); font-size: 8px;&quot;&gt;Points&lt;br style=&quot;border-color: var(--border-color);&quot;&gt;LapTime&lt;br style=&quot;border-color: var(--border-color);&quot;&gt;NumOfLaps&lt;br style=&quot;border-color: var(--border-color);&quot;&gt;&lt;/font&gt;&lt;font style=&quot;border-color: var(--border-color); font-size: 8px;&quot;&gt;wins&lt;br style=&quot;border-color: var(--border-color);&quot;&gt;&lt;/font&gt;&lt;font style=&quot;border-color: var(--border-color); font-size: 8px;&quot;&gt;Round&lt;br style=&quot;border-color: var(--border-color);&quot;&gt;&lt;/font&gt;&lt;font style=&quot;border-color: var(--border-color); font-size: 8px;&quot;&gt;FastestLapSpeed&lt;br style=&quot;border-color: var(--border-color);&quot;&gt;FastestLapTime&lt;/font&gt;&lt;/div&gt;&lt;/u&gt;&lt;/div&gt;" style="shape=cube;whiteSpace=wrap;html=1;boundedLbl=1;backgroundOutline=1;darkOpacity=0.05;darkOpacity2=0.1;" parent="1" vertex="1">
          <mxGeometry x="350" y="140" width="240" height="410" as="geometry" />
        </mxCell>
        <mxCell id="FVVRTqBDb79afzyqcxXZ-2" value="DriverStandings" style="swimlane;whiteSpace=wrap;html=1;" parent="1" vertex="1">
          <mxGeometry x="610" y="620" width="140" height="110" as="geometry" />
        </mxCell>
        <mxCell id="FVVRTqBDb79afzyqcxXZ-19" value="&lt;div&gt;&lt;u&gt;DriverStandingID&lt;/u&gt;&lt;/div&gt;&lt;div&gt;Wins&lt;/div&gt;&lt;div&gt;Position&lt;/div&gt;&lt;div&gt;Points&lt;/div&gt;" style="text;html=1;align=left;verticalAlign=middle;resizable=0;points=[];autosize=1;strokeColor=none;fillColor=none;" parent="FVVRTqBDb79afzyqcxXZ-2" vertex="1">
          <mxGeometry x="11" y="30" width="110" height="70" as="geometry" />
        </mxCell>
        <mxCell id="FVVRTqBDb79afzyqcxXZ-3" value="Circuit" style="swimlane;whiteSpace=wrap;html=1;" parent="1" vertex="1">
          <mxGeometry x="657.25" y="-100" width="192.75" height="180" as="geometry" />
        </mxCell>
        <mxCell id="FVVRTqBDb79afzyqcxXZ-15" value="&lt;div style=&quot;text-align: left;&quot;&gt;CircuitID&lt;/div&gt;&lt;div style=&quot;text-align: left;&quot;&gt;CircuitName&lt;/div&gt;&lt;div style=&quot;text-align: left;&quot;&gt;Country&lt;/div&gt;&lt;div style=&quot;text-align: left;&quot;&gt;Latitude&lt;/div&gt;&lt;div style=&quot;text-align: left;&quot;&gt;Longitude&lt;/div&gt;&lt;div style=&quot;text-align: left;&quot;&gt;NumOfLaps&lt;br&gt;&lt;span style=&quot;border-color: var(--border-color); font-size: 11px; text-align: center;&quot;&gt;CityName&lt;/span&gt;&lt;/div&gt;&lt;div style=&quot;text-align: left;&quot;&gt;&lt;div style=&quot;text-align: center;&quot;&gt;circuit_geography_id&lt;span style=&quot;font-size: 11px;&quot;&gt;&lt;br&gt;&lt;/span&gt;&lt;/div&gt;&lt;span style=&quot;background-color: initial;&quot;&gt;&lt;br&gt;&lt;/span&gt;&lt;/div&gt;" style="text;html=1;align=center;verticalAlign=middle;resizable=0;points=[];autosize=1;strokeColor=none;fillColor=none;" parent="FVVRTqBDb79afzyqcxXZ-3" vertex="1">
          <mxGeometry x="20" y="27" width="130" height="140" as="geometry" />
        </mxCell>
        <mxCell id="FVVRTqBDb79afzyqcxXZ-5" value="LapTime" style="swimlane;whiteSpace=wrap;html=1;" parent="1" vertex="1">
          <mxGeometry x="80" y="770" width="175" height="160" as="geometry" />
        </mxCell>
        <mxCell id="FVVRTqBDb79afzyqcxXZ-11" value="LapRecord_id" style="text;html=1;align=center;verticalAlign=middle;resizable=0;points=[];autosize=1;strokeColor=none;fillColor=none;" parent="FVVRTqBDb79afzyqcxXZ-5" vertex="1">
          <mxGeometry x="-5" y="28" width="100" height="30" as="geometry" />
        </mxCell>
        <mxCell id="FVVRTqBDb79afzyqcxXZ-12" value="LapRecordTime" style="text;html=1;align=center;verticalAlign=middle;resizable=0;points=[];autosize=1;strokeColor=none;fillColor=none;" parent="FVVRTqBDb79afzyqcxXZ-5" vertex="1">
          <mxGeometry x="-5" y="50" width="110" height="30" as="geometry" />
        </mxCell>
        <mxCell id="FVVRTqBDb79afzyqcxXZ-13" value="LapRecordDriver" style="text;html=1;align=center;verticalAlign=middle;resizable=0;points=[];autosize=1;strokeColor=none;fillColor=none;" parent="FVVRTqBDb79afzyqcxXZ-5" vertex="1">
          <mxGeometry x="-2" y="70" width="110" height="30" as="geometry" />
        </mxCell>
        <mxCell id="FVVRTqBDb79afzyqcxXZ-14" value="Position" style="text;html=1;align=center;verticalAlign=middle;resizable=0;points=[];autosize=1;strokeColor=none;fillColor=none;" parent="FVVRTqBDb79afzyqcxXZ-5" vertex="1">
          <mxGeometry x="-5" y="90" width="70" height="30" as="geometry" />
        </mxCell>
        <mxCell id="BGdtZH1YHA5HRXUlsSLR-48" value="&lt;span style=&quot;border-color: var(--border-color); font-size: 12px;&quot;&gt;Laptime_Lap_ID&lt;/span&gt;" style="text;html=1;align=center;verticalAlign=middle;resizable=0;points=[];autosize=1;strokeColor=none;fillColor=none;fontSize=11;fontFamily=Helvetica;fontColor=default;" parent="FVVRTqBDb79afzyqcxXZ-5" vertex="1">
          <mxGeometry x="-2" y="110" width="110" height="30" as="geometry" />
        </mxCell>
        <mxCell id="FVVRTqBDb79afzyqcxXZ-6" value="Constructor" style="swimlane;whiteSpace=wrap;html=1;" parent="1" vertex="1">
          <mxGeometry x="674.25" y="194" width="175.75" height="166" as="geometry" />
        </mxCell>
        <mxCell id="FVVRTqBDb79afzyqcxXZ-16" value="&lt;div&gt;&lt;u&gt;ConstructorID&lt;/u&gt;&lt;/div&gt;&lt;div&gt;ConstructorName&lt;/div&gt;&lt;div&gt;Nationality&lt;br&gt;&lt;span style=&quot;border-color: var(--border-color); font-size: 11px; text-align: center;&quot;&gt;constructor_geography_id&lt;/span&gt;&lt;u style=&quot;border-color: var(--border-color); font-size: 11px; text-align: center;&quot;&gt;&lt;br style=&quot;border-color: var(--border-color);&quot;&gt;&lt;/u&gt;&lt;/div&gt;" style="text;html=1;align=left;verticalAlign=middle;resizable=0;points=[];autosize=1;strokeColor=none;fillColor=none;" parent="FVVRTqBDb79afzyqcxXZ-6" vertex="1">
          <mxGeometry x="10" y="50" width="150" height="70" as="geometry" />
        </mxCell>
        <mxCell id="FVVRTqBDb79afzyqcxXZ-7" value="Season" style="swimlane;whiteSpace=wrap;html=1;" parent="1" vertex="1">
          <mxGeometry x="88" y="190" width="120" height="90" as="geometry" />
        </mxCell>
        <mxCell id="FVVRTqBDb79afzyqcxXZ-17" value="&lt;u&gt;Year&lt;/u&gt;&lt;br&gt;Url&lt;br&gt;TimeLine_ID" style="text;html=1;align=left;verticalAlign=middle;resizable=0;points=[];autosize=1;strokeColor=none;fillColor=none;" parent="FVVRTqBDb79afzyqcxXZ-7" vertex="1">
          <mxGeometry x="10" y="25" width="90" height="60" as="geometry" />
        </mxCell>
        <mxCell id="FVVRTqBDb79afzyqcxXZ-8" value="Race" style="swimlane;whiteSpace=wrap;html=1;" parent="1" vertex="1">
          <mxGeometry x="70" y="-20" width="160" height="150" as="geometry" />
        </mxCell>
        <mxCell id="FVVRTqBDb79afzyqcxXZ-32" value="&lt;u&gt;RaceId&lt;/u&gt;&lt;br&gt;Year&lt;br&gt;Round&lt;br&gt;Name&lt;br&gt;&lt;span style=&quot;border-color: var(--border-color); text-align: center;&quot;&gt;calendar_ID&lt;/span&gt;&lt;br&gt;&lt;span style=&quot;font-size: medium;&quot;&gt;&lt;/span&gt;" style="text;html=1;align=left;verticalAlign=middle;resizable=0;points=[];autosize=1;strokeColor=none;fillColor=none;" parent="FVVRTqBDb79afzyqcxXZ-8" vertex="1">
          <mxGeometry x="26" y="30" width="90" height="90" as="geometry" />
        </mxCell>
        <mxCell id="FVVRTqBDb79afzyqcxXZ-9" value="Qualifying" style="swimlane;whiteSpace=wrap;html=1;" parent="1" vertex="1">
          <mxGeometry x="350" y="-76" width="140" height="100" as="geometry" />
        </mxCell>
        <mxCell id="FVVRTqBDb79afzyqcxXZ-34" value="&lt;u&gt;QualifyingID&lt;/u&gt;&lt;br&gt;Number&lt;br&gt;Position" style="text;html=1;align=left;verticalAlign=middle;resizable=0;points=[];autosize=1;strokeColor=none;fillColor=none;" parent="FVVRTqBDb79afzyqcxXZ-9" vertex="1">
          <mxGeometry x="9" y="30" width="90" height="60" as="geometry" />
        </mxCell>
        <mxCell id="FVVRTqBDb79afzyqcxXZ-10" value="Results" style="swimlane;whiteSpace=wrap;html=1;" parent="1" vertex="1">
          <mxGeometry x="68" y="580" width="140" height="120" as="geometry" />
        </mxCell>
        <mxCell id="FVVRTqBDb79afzyqcxXZ-33" value="&lt;div&gt;&lt;u&gt;ResultID&lt;/u&gt;&lt;/div&gt;&lt;div&gt;Points&lt;/div&gt;&lt;div&gt;FastestLapTime&lt;/div&gt;&lt;div&gt;FastetstLapSpeed&lt;br&gt;Result_Lap_ID&lt;br&gt;&lt;/div&gt;" style="text;html=1;align=left;verticalAlign=middle;resizable=0;points=[];autosize=1;strokeColor=none;fillColor=none;" parent="FVVRTqBDb79afzyqcxXZ-10" vertex="1">
          <mxGeometry x="10" y="30" width="120" height="90" as="geometry" />
        </mxCell>
        <mxCell id="MxePWm94RPjNCgJkYmIr-10" value="ConstructorStandings" style="swimlane;whiteSpace=wrap;html=1;" parent="1" vertex="1">
          <mxGeometry x="395" y="610" width="150" height="120" as="geometry" />
        </mxCell>
        <mxCell id="MxePWm94RPjNCgJkYmIr-11" value="&lt;div&gt;&lt;u&gt;ConstructorStandingID&lt;/u&gt;&lt;/div&gt;&lt;div&gt;Wins&lt;/div&gt;&lt;div&gt;Position&lt;/div&gt;&lt;div&gt;Points&lt;/div&gt;" style="text;html=1;align=left;verticalAlign=middle;resizable=0;points=[];autosize=1;strokeColor=none;fillColor=none;" parent="MxePWm94RPjNCgJkYmIr-10" vertex="1">
          <mxGeometry x="10" y="25" width="140" height="70" as="geometry" />
        </mxCell>
        <mxCell id="MxePWm94RPjNCgJkYmIr-14" value="Driver" style="swimlane;whiteSpace=wrap;html=1;" parent="1" vertex="1">
          <mxGeometry x="684.25" y="406" width="175.75" height="144" as="geometry" />
        </mxCell>
        <mxCell id="MxePWm94RPjNCgJkYmIr-15" value="&lt;div&gt;&lt;u&gt;DriverID&lt;/u&gt;&lt;/div&gt;&lt;div&gt;driverName&lt;/div&gt;&lt;div&gt;nationality&lt;br&gt;&lt;span style=&quot;border-color: var(--border-color); font-size: 11px; text-align: center;&quot;&gt;driver_geography_id&lt;/span&gt;&lt;br style=&quot;border-color: var(--border-color); font-size: 11px; text-align: center;&quot;&gt;&lt;/div&gt;" style="text;html=1;align=left;verticalAlign=middle;resizable=0;points=[];autosize=1;strokeColor=none;fillColor=none;" parent="MxePWm94RPjNCgJkYmIr-14" vertex="1">
          <mxGeometry x="23" y="37" width="120" height="70" as="geometry" />
        </mxCell>
        <mxCell id="MxePWm94RPjNCgJkYmIr-12" value="ConstructorResults" style="swimlane;whiteSpace=wrap;html=1;" parent="1" vertex="1">
          <mxGeometry x="60" y="350" width="176" height="160" as="geometry" />
        </mxCell>
        <mxCell id="MxePWm94RPjNCgJkYmIr-13" value="&lt;div&gt;&lt;u&gt;&lt;br&gt;&lt;/u&gt;&lt;/div&gt;&lt;div&gt;&lt;u&gt;ConstructorResultID&lt;/u&gt;&lt;/div&gt;&lt;div&gt;ConstructorID&lt;/div&gt;&lt;div&gt;DriverID&lt;/div&gt;&lt;div&gt;Points&lt;/div&gt;&lt;div&gt;FastestLapTime&lt;/div&gt;&lt;div&gt;FastetstLapSpeed&lt;/div&gt;&lt;div&gt;constructor_Lap_ID&lt;br&gt;&lt;/div&gt;" style="text;html=1;align=left;verticalAlign=middle;resizable=0;points=[];autosize=1;strokeColor=none;fillColor=none;" parent="MxePWm94RPjNCgJkYmIr-12" vertex="1">
          <mxGeometry x="11" y="33" width="130" height="130" as="geometry" />
        </mxCell>
        <mxCell id="BGdtZH1YHA5HRXUlsSLR-1" value="Results_lap" style="swimlane;whiteSpace=wrap;html=1;" parent="1" vertex="1">
          <mxGeometry x="-250" y="700" width="180" height="160" as="geometry" />
        </mxCell>
        <mxCell id="BGdtZH1YHA5HRXUlsSLR-2" value="&lt;u&gt;Result_Lap_ID&lt;/u&gt;&lt;br&gt;&lt;br&gt;Milliseconds&lt;br&gt;&lt;br&gt;Minutes&lt;br&gt;&lt;br&gt;Hours" style="text;html=1;align=center;verticalAlign=middle;resizable=0;points=[];autosize=1;strokeColor=none;fillColor=none;" parent="BGdtZH1YHA5HRXUlsSLR-1" vertex="1">
          <mxGeometry x="35" y="40" width="100" height="110" as="geometry" />
        </mxCell>
        <mxCell id="BGdtZH1YHA5HRXUlsSLR-5" value="constructor_lap" style="swimlane;whiteSpace=wrap;html=1;" parent="1" vertex="1">
          <mxGeometry x="-280" y="430" width="180" height="160" as="geometry" />
        </mxCell>
        <mxCell id="BGdtZH1YHA5HRXUlsSLR-6" value="&lt;br&gt;&lt;u&gt;constructor_Lap_ID&lt;/u&gt;&lt;br&gt;&lt;br&gt;Milliseconds&lt;br&gt;&lt;br&gt;Minutes&lt;br&gt;&lt;br&gt;Hours" style="text;html=1;align=center;verticalAlign=middle;resizable=0;points=[];autosize=1;strokeColor=none;fillColor=none;" parent="BGdtZH1YHA5HRXUlsSLR-5" vertex="1">
          <mxGeometry x="20" y="30" width="130" height="130" as="geometry" />
        </mxCell>
        <mxCell id="BGdtZH1YHA5HRXUlsSLR-12" value="Laptime_Lap" style="swimlane;whiteSpace=wrap;html=1;" parent="1" vertex="1">
          <mxGeometry x="395" y="790" width="180" height="160" as="geometry" />
        </mxCell>
        <mxCell id="BGdtZH1YHA5HRXUlsSLR-13" value="&lt;u&gt;Laptime_Lap_ID&lt;/u&gt;&lt;br&gt;&lt;br&gt;Milliseconds&lt;br&gt;&lt;br&gt;Minutes&lt;br&gt;&lt;br&gt;Hours" style="text;html=1;align=center;verticalAlign=middle;resizable=0;points=[];autosize=1;strokeColor=none;fillColor=none;" parent="BGdtZH1YHA5HRXUlsSLR-12" vertex="1">
          <mxGeometry x="30" y="40" width="110" height="110" as="geometry" />
        </mxCell>
        <mxCell id="BGdtZH1YHA5HRXUlsSLR-14" value="" style="endArrow=classic;html=1;rounded=0;exitX=0;exitY=0.5;exitDx=0;exitDy=0;" parent="1" source="MxePWm94RPjNCgJkYmIr-12" edge="1">
          <mxGeometry width="50" height="50" relative="1" as="geometry">
            <mxPoint x="-40" y="240" as="sourcePoint" />
            <mxPoint x="-100" y="490" as="targetPoint" />
          </mxGeometry>
        </mxCell>
        <mxCell id="BGdtZH1YHA5HRXUlsSLR-15" value="" style="endArrow=classic;html=1;rounded=0;exitX=0;exitY=0.75;exitDx=0;exitDy=0;entryX=1;entryY=0.5;entryDx=0;entryDy=0;" parent="1" source="FVVRTqBDb79afzyqcxXZ-10" target="BGdtZH1YHA5HRXUlsSLR-1" edge="1">
          <mxGeometry width="50" height="50" relative="1" as="geometry">
            <mxPoint x="-40" y="240" as="sourcePoint" />
            <mxPoint x="10" y="190" as="targetPoint" />
          </mxGeometry>
        </mxCell>
        <mxCell id="BGdtZH1YHA5HRXUlsSLR-16" value="" style="endArrow=classic;html=1;rounded=0;exitX=1;exitY=0.75;exitDx=0;exitDy=0;" parent="1" source="FVVRTqBDb79afzyqcxXZ-5" target="BGdtZH1YHA5HRXUlsSLR-12" edge="1">
          <mxGeometry width="50" height="50" relative="1" as="geometry">
            <mxPoint x="-40" y="700" as="sourcePoint" />
            <mxPoint x="10" y="650" as="targetPoint" />
          </mxGeometry>
        </mxCell>
        <mxCell id="BGdtZH1YHA5HRXUlsSLR-17" value="" style="endArrow=classic;html=1;rounded=0;exitX=0;exitY=0;exitDx=130;exitDy=410;exitPerimeter=0;entryX=0.5;entryY=0;entryDx=0;entryDy=0;" parent="1" source="FVVRTqBDb79afzyqcxXZ-1" target="MxePWm94RPjNCgJkYmIr-10" edge="1">
          <mxGeometry width="50" height="50" relative="1" as="geometry">
            <mxPoint x="140" y="550" as="sourcePoint" />
            <mxPoint x="190" y="500" as="targetPoint" />
          </mxGeometry>
        </mxCell>
        <mxCell id="BGdtZH1YHA5HRXUlsSLR-18" value="" style="endArrow=classic;html=1;rounded=0;exitX=0.75;exitY=1;exitDx=0;exitDy=0;exitPerimeter=0;entryX=0.5;entryY=0;entryDx=0;entryDy=0;" parent="1" source="FVVRTqBDb79afzyqcxXZ-1" target="FVVRTqBDb79afzyqcxXZ-2" edge="1">
          <mxGeometry width="50" height="50" relative="1" as="geometry">
            <mxPoint x="140" y="550" as="sourcePoint" />
            <mxPoint x="190" y="500" as="targetPoint" />
          </mxGeometry>
        </mxCell>
        <mxCell id="BGdtZH1YHA5HRXUlsSLR-19" value="" style="endArrow=classic;html=1;rounded=0;exitX=-0.011;exitY=0.728;exitDx=0;exitDy=0;exitPerimeter=0;entryX=1;entryY=0.75;entryDx=0;entryDy=0;" parent="1" source="FVVRTqBDb79afzyqcxXZ-1" target="MxePWm94RPjNCgJkYmIr-12" edge="1">
          <mxGeometry width="50" height="50" relative="1" as="geometry">
            <mxPoint x="140" y="550" as="sourcePoint" />
            <mxPoint x="190" y="500" as="targetPoint" />
          </mxGeometry>
        </mxCell>
        <mxCell id="BGdtZH1YHA5HRXUlsSLR-20" value="" style="endArrow=classic;html=1;rounded=0;exitX=0;exitY=0;exitDx=0;exitDy=390;exitPerimeter=0;entryX=1;entryY=0;entryDx=0;entryDy=0;" parent="1" source="FVVRTqBDb79afzyqcxXZ-1" target="FVVRTqBDb79afzyqcxXZ-10" edge="1">
          <mxGeometry width="50" height="50" relative="1" as="geometry">
            <mxPoint x="140" y="550" as="sourcePoint" />
            <mxPoint x="190" y="500" as="targetPoint" />
          </mxGeometry>
        </mxCell>
        <mxCell id="BGdtZH1YHA5HRXUlsSLR-21" value="" style="endArrow=classic;html=1;rounded=0;exitX=0.226;exitY=1.003;exitDx=0;exitDy=0;exitPerimeter=0;entryX=1;entryY=0;entryDx=0;entryDy=0;" parent="1" source="FVVRTqBDb79afzyqcxXZ-1" target="FVVRTqBDb79afzyqcxXZ-5" edge="1">
          <mxGeometry width="50" height="50" relative="1" as="geometry">
            <mxPoint x="140" y="550" as="sourcePoint" />
            <mxPoint x="250" y="670" as="targetPoint" />
          </mxGeometry>
        </mxCell>
        <mxCell id="BGdtZH1YHA5HRXUlsSLR-22" value="" style="endArrow=classic;html=1;rounded=0;entryX=1;entryY=1;entryDx=0;entryDy=0;" parent="1" source="FVVRTqBDb79afzyqcxXZ-1" target="FVVRTqBDb79afzyqcxXZ-7" edge="1">
          <mxGeometry width="50" height="50" relative="1" as="geometry">
            <mxPoint x="140" y="290" as="sourcePoint" />
            <mxPoint x="190" y="240" as="targetPoint" />
          </mxGeometry>
        </mxCell>
        <mxCell id="BGdtZH1YHA5HRXUlsSLR-23" value="" style="endArrow=classic;html=1;rounded=0;exitX=0;exitY=0;exitDx=0;exitDy=0;exitPerimeter=0;" parent="1" source="FVVRTqBDb79afzyqcxXZ-1" edge="1">
          <mxGeometry width="50" height="50" relative="1" as="geometry">
            <mxPoint x="140" y="290" as="sourcePoint" />
            <mxPoint x="230" y="120" as="targetPoint" />
          </mxGeometry>
        </mxCell>
        <mxCell id="BGdtZH1YHA5HRXUlsSLR-24" value="calender" style="swimlane;whiteSpace=wrap;html=1;" parent="1" vertex="1">
          <mxGeometry x="-270" y="-120" width="210" height="210" as="geometry" />
        </mxCell>
        <mxCell id="BGdtZH1YHA5HRXUlsSLR-25" value="&lt;br&gt;&lt;u&gt;calendar_ID&lt;/u&gt;&lt;br&gt;&lt;br&gt;WeekNumber&lt;br&gt;&lt;br&gt;MonthName&lt;br&gt;&lt;br&gt;Year" style="text;html=1;align=center;verticalAlign=middle;resizable=0;points=[];autosize=1;strokeColor=none;fillColor=none;" parent="BGdtZH1YHA5HRXUlsSLR-24" vertex="1">
          <mxGeometry x="50" y="50" width="100" height="130" as="geometry" />
        </mxCell>
        <mxCell id="BGdtZH1YHA5HRXUlsSLR-26" value="TimeLine" style="swimlane;whiteSpace=wrap;html=1;" parent="1" vertex="1">
          <mxGeometry x="-290" y="172" width="220" height="198" as="geometry" />
        </mxCell>
        <mxCell id="BGdtZH1YHA5HRXUlsSLR-27" value="&lt;u&gt;TimeLine_ID&lt;/u&gt;&lt;br&gt;&lt;br&gt;WeekNumber&lt;br&gt;&lt;br&gt;MonthName&lt;br&gt;&lt;br&gt;Year" style="text;html=1;align=center;verticalAlign=middle;resizable=0;points=[];autosize=1;strokeColor=none;fillColor=none;" parent="BGdtZH1YHA5HRXUlsSLR-26" vertex="1">
          <mxGeometry x="60" y="52" width="100" height="110" as="geometry" />
        </mxCell>
        <mxCell id="BGdtZH1YHA5HRXUlsSLR-28" value="" style="endArrow=classic;html=1;rounded=0;exitX=0;exitY=0.5;exitDx=0;exitDy=0;entryX=1;entryY=0.5;entryDx=0;entryDy=0;" parent="1" source="FVVRTqBDb79afzyqcxXZ-7" target="BGdtZH1YHA5HRXUlsSLR-26" edge="1">
          <mxGeometry width="50" height="50" relative="1" as="geometry">
            <mxPoint x="140" y="290" as="sourcePoint" />
            <mxPoint x="190" y="240" as="targetPoint" />
          </mxGeometry>
        </mxCell>
        <mxCell id="BGdtZH1YHA5HRXUlsSLR-29" value="" style="endArrow=openThin;html=1;rounded=0;exitX=0;exitY=0.5;exitDx=0;exitDy=0;entryX=1;entryY=0.75;entryDx=0;entryDy=0;endFill=0;" parent="1" source="FVVRTqBDb79afzyqcxXZ-8" target="BGdtZH1YHA5HRXUlsSLR-24" edge="1">
          <mxGeometry width="50" height="50" relative="1" as="geometry">
            <mxPoint x="140" y="290" as="sourcePoint" />
            <mxPoint x="190" y="240" as="targetPoint" />
          </mxGeometry>
        </mxCell>
        <mxCell id="BGdtZH1YHA5HRXUlsSLR-36" value="Circuit_geograpy" style="swimlane;whiteSpace=wrap;html=1;fontFamily=Helvetica;fontSize=11;fontColor=default;" parent="1" vertex="1">
          <mxGeometry x="979" y="-111" width="200" height="170" as="geometry" />
        </mxCell>
        <mxCell id="BGdtZH1YHA5HRXUlsSLR-37" value="&lt;u&gt;&lt;br&gt;&lt;/u&gt;&lt;u style=&quot;border-color: var(--border-color);&quot;&gt;circuit_geography_id&lt;br&gt;&lt;/u&gt;&lt;br&gt;CityName&lt;br&gt;&lt;br&gt;&lt;br&gt;CountryName&lt;br&gt;&lt;br&gt;&lt;br&gt;RegionName" style="text;html=1;align=center;verticalAlign=middle;resizable=0;points=[];autosize=1;strokeColor=none;fillColor=none;fontSize=11;fontFamily=Helvetica;fontColor=default;" parent="BGdtZH1YHA5HRXUlsSLR-36" vertex="1">
          <mxGeometry x="10" y="19" width="130" height="150" as="geometry" />
        </mxCell>
        <mxCell id="BGdtZH1YHA5HRXUlsSLR-38" value="" style="endArrow=classic;html=1;rounded=0;labelBackgroundColor=default;strokeColor=default;align=center;verticalAlign=middle;fontFamily=Helvetica;fontSize=11;fontColor=default;shape=connector;exitX=1;exitY=0.5;exitDx=0;exitDy=0;" parent="1" source="FVVRTqBDb79afzyqcxXZ-3" edge="1">
          <mxGeometry width="50" height="50" relative="1" as="geometry">
            <mxPoint x="800" y="390" as="sourcePoint" />
            <mxPoint x="980" y="-10" as="targetPoint" />
          </mxGeometry>
        </mxCell>
        <mxCell id="BGdtZH1YHA5HRXUlsSLR-39" value="constructor_geograpy" style="swimlane;whiteSpace=wrap;html=1;fontFamily=Helvetica;fontSize=11;fontColor=default;startSize=23;" parent="1" vertex="1">
          <mxGeometry x="990" y="192" width="200" height="170" as="geometry" />
        </mxCell>
        <mxCell id="BGdtZH1YHA5HRXUlsSLR-40" value="&lt;u&gt;&lt;br&gt;&lt;/u&gt;&lt;span style=&quot;border-color: var(--border-color);&quot;&gt;constructor_geography_id&lt;/span&gt;&lt;br&gt;&lt;br&gt;CityName&lt;br&gt;&lt;br&gt;&lt;br&gt;CountryName&lt;br&gt;&lt;br&gt;&lt;br&gt;RegionName" style="text;html=1;align=center;verticalAlign=middle;resizable=0;points=[];autosize=1;strokeColor=none;fillColor=none;fontSize=11;fontFamily=Helvetica;fontColor=default;" parent="BGdtZH1YHA5HRXUlsSLR-39" vertex="1">
          <mxGeometry y="19" width="150" height="150" as="geometry" />
        </mxCell>
        <mxCell id="BGdtZH1YHA5HRXUlsSLR-41" value="" style="endArrow=classic;html=1;rounded=0;labelBackgroundColor=default;strokeColor=default;align=center;verticalAlign=middle;fontFamily=Helvetica;fontSize=11;fontColor=default;shape=connector;entryX=0;entryY=0.5;entryDx=0;entryDy=0;exitX=1;exitY=0.5;exitDx=0;exitDy=0;" parent="1" source="FVVRTqBDb79afzyqcxXZ-6" target="BGdtZH1YHA5HRXUlsSLR-39" edge="1">
          <mxGeometry width="50" height="50" relative="1" as="geometry">
            <mxPoint x="800" y="390" as="sourcePoint" />
            <mxPoint x="850" y="340" as="targetPoint" />
          </mxGeometry>
        </mxCell>
        <mxCell id="BGdtZH1YHA5HRXUlsSLR-42" value="driver_geograpy" style="swimlane;whiteSpace=wrap;html=1;fontFamily=Helvetica;fontSize=11;fontColor=default;startSize=23;" parent="1" vertex="1">
          <mxGeometry x="1010" y="430" width="200" height="170" as="geometry" />
        </mxCell>
        <mxCell id="BGdtZH1YHA5HRXUlsSLR-43" value="&lt;br&gt;&lt;u&gt;driver_geography_id&lt;/u&gt;&lt;br&gt;&lt;br&gt;CityName&lt;br&gt;&lt;br&gt;&lt;br&gt;CountryName&lt;br&gt;&lt;br&gt;&lt;br&gt;RegionName" style="text;html=1;align=center;verticalAlign=middle;resizable=0;points=[];autosize=1;strokeColor=none;fillColor=none;fontSize=11;fontFamily=Helvetica;fontColor=default;" parent="BGdtZH1YHA5HRXUlsSLR-42" vertex="1">
          <mxGeometry x="15" y="19" width="120" height="150" as="geometry" />
        </mxCell>
        <mxCell id="BGdtZH1YHA5HRXUlsSLR-44" value="" style="endArrow=classic;html=1;rounded=0;labelBackgroundColor=default;strokeColor=default;align=center;verticalAlign=middle;fontFamily=Helvetica;fontSize=11;fontColor=default;shape=connector;entryX=0;entryY=0.5;entryDx=0;entryDy=0;exitX=1;exitY=0.75;exitDx=0;exitDy=0;" parent="1" source="MxePWm94RPjNCgJkYmIr-14" target="BGdtZH1YHA5HRXUlsSLR-42" edge="1">
          <mxGeometry width="50" height="50" relative="1" as="geometry">
            <mxPoint x="800" y="390" as="sourcePoint" />
            <mxPoint x="850" y="340" as="targetPoint" />
          </mxGeometry>
        </mxCell>
      </root>
    </mxGraphModel>
  </diagram>
</mxfile>
